<svg width="37" height="38" viewBox="0 0 37 38" fill="none" xmlns="http://www.w3.org/2000/svg">
<path d="M20.3402 3.92471C21.4404 3.92048 22.5407 3.93154 23.6406 3.95788L23.9331 3.96843C24.2708 3.98049 24.6041 3.99557 25.0066 4.01366C26.6108 4.08905 27.7054 4.34235 28.6659 4.71475C29.661 5.09772 30.4993 5.61637 31.3376 6.45467C32.104 7.20794 32.6973 8.11911 33.076 9.12485C33.4484 10.0853 33.7017 11.1814 33.7771 12.7856C33.7951 13.1867 33.8102 13.5214 33.8223 13.8591L33.8313 14.1516C33.8581 15.251 33.8697 16.3508 33.866 17.4505L33.8675 18.5753V20.5504C33.8712 21.6506 33.8597 22.7509 33.8328 23.8508L33.8238 24.1433C33.8117 24.481 33.7966 24.8142 33.7786 25.2168C33.7032 26.821 33.4469 27.9156 33.076 28.876C32.6985 29.8828 32.1051 30.7948 31.3376 31.5477C30.5836 32.3141 29.672 32.9073 28.6659 33.2861C27.7054 33.6585 26.6108 33.9118 25.0066 33.9872C24.6041 34.0053 24.2708 34.0204 23.9331 34.0324L23.6406 34.0415C22.5407 34.0683 21.4405 34.0799 20.3402 34.0762L19.2154 34.0777H17.2418C16.1416 34.0814 15.0414 34.0698 13.9414 34.043L13.6489 34.034C13.291 34.021 12.9332 34.0059 12.5754 33.9887C10.9712 33.9133 9.8766 33.657 8.91468 33.2861C7.90855 32.9082 6.99721 32.3149 6.2445 31.5477C5.47713 30.7943 4.88336 29.8825 4.50458 28.876C4.13218 27.9156 3.87888 26.821 3.80349 25.2168C3.7867 24.859 3.77162 24.5012 3.75826 24.1433L3.75072 23.8508C3.72292 22.7509 3.71036 21.6506 3.71303 20.5504V17.4505C3.70882 16.3508 3.71988 15.251 3.7462 14.1516L3.75675 13.8591C3.76881 13.5214 3.78389 13.1867 3.80198 12.7856C3.87737 11.1799 4.13067 10.0868 4.50308 9.12485C4.88208 8.11862 5.47701 7.20769 6.246 6.45618C6.9982 5.68837 7.90897 5.09406 8.91468 4.71475C9.8766 4.34235 10.9697 4.08905 12.5754 4.01366L13.6489 3.96843L13.9414 3.96089C15.0408 3.93311 16.1406 3.92054 17.2403 3.9232L20.3402 3.92471ZM18.7903 11.4633C17.7914 11.4492 16.7997 11.6337 15.8728 12.0062C14.9459 12.3787 14.1022 12.9317 13.3909 13.633C12.6795 14.3344 12.1147 15.1701 11.7291 16.0917C11.3436 17.0132 11.145 18.0022 11.145 19.0012C11.145 20.0002 11.3436 20.9891 11.7291 21.9107C12.1147 22.8323 12.6795 23.668 13.3909 24.3694C14.1022 25.0707 14.9459 25.6237 15.8728 25.9962C16.7997 26.3687 17.7914 26.5532 18.7903 26.5391C20.7896 26.5391 22.7071 25.7448 24.1209 24.3311C25.5346 22.9173 26.3289 20.9998 26.3289 19.0004C26.3289 17.0011 25.5346 15.0836 24.1209 13.6698C22.7071 12.2561 20.7896 11.4633 18.7903 11.4633ZM18.7903 14.4788C19.3911 14.4677 19.9881 14.5765 20.5465 14.7987C21.1048 15.021 21.6132 15.3523 22.0421 15.7732C22.471 16.1942 22.8116 16.6964 23.0442 17.2505C23.2768 17.8046 23.3967 18.3995 23.3968 19.0004C23.3969 19.6014 23.2772 20.1963 23.0448 20.7505C22.8124 21.3047 22.4719 21.807 22.0432 22.2281C21.6145 22.6492 21.1061 22.9806 20.5479 23.2031C19.9896 23.4255 19.3926 23.5345 18.7918 23.5236C17.5922 23.5236 16.4417 23.0471 15.5934 22.1988C14.7452 21.3505 14.2686 20.2001 14.2686 19.0004C14.2686 17.8008 14.7452 16.6503 15.5934 15.8021C16.4417 14.9538 17.5922 14.4773 18.7918 14.4773L18.7903 14.4788ZM26.7058 9.20174C26.2194 9.22121 25.7594 9.42813 25.4222 9.77916C25.0849 10.1302 24.8965 10.5981 24.8965 11.0849C24.8965 11.5717 25.0849 12.0396 25.4222 12.3906C25.7594 12.7417 26.2194 12.9486 26.7058 12.968C27.2057 12.968 27.685 12.7695 28.0385 12.416C28.3919 12.0626 28.5905 11.5832 28.5905 11.0834C28.5905 10.5835 28.3919 10.1042 28.0385 9.75073C27.685 9.39729 27.2057 9.19873 26.7058 9.19873V9.20174Z" fill="white"/>
</svg>
