<?xml version="1.0" encoding="utf-8"?>
<!-- Generator: Adobe Illustrator 22.1.0, SVG Export Plug-In . SVG Version: 6.00 Build 0)  -->
<svg version="1.1" id="Layer_1" xmlns="http://www.w3.org/2000/svg" xmlns:xlink="http://www.w3.org/1999/xlink" x="0px" y="0px"
	 viewBox="0 0 1000 1000" style="enable-background:new 0 0 1000 1000;" xml:space="preserve">
<path d="M861.5,419.5L861.5,419.5c16.7,0,28.7-16,24.1-32c-4.3-14.6-9.4-29-15.4-43.2c-20.1-47.6-49-90.4-85.7-127.1
	c-25.1-25.1-53.1-46.6-83.5-64c-13.1-7.6-29.9-1.9-35.7,12.1l0,0.1c-4.8,11.6-0.2,25,10.7,31.3c77.3,44.5,136,117.7,161.6,204.9
	C840.6,412.1,850.4,419.5,861.5,419.5z" fill="#222222"/>
<path d="M337.5,165.7L337.5,165.7c-5.8-14.2-22.6-19.9-35.8-12.3c-30.2,17.4-58,38.7-82.9,63.7c-36.7,36.7-65.6,79.5-85.7,127.1
	c-6,14.2-11.1,28.6-15.4,43.2c-4.7,16,7.4,32,24.1,32h0c11.2,0,20.9-7.4,24.1-18.1c25.6-87,84.1-160,161.1-204.6
	C337.7,190.6,342.2,177.3,337.5,165.7z" fill="#222222"/>
<path d="M964.8,419.5L964.8,419.5c16.1,0,28-15,24.4-30.7c-6.5-28.5-15.4-56.3-26.9-83.5c-25.2-59.5-61.2-113-107.1-158.9
	c-34.7-34.7-73.7-63.8-116.4-86.8c-13.1-7-29.3-1.2-35,12.5l0,0.1c-4.9,11.8-0.1,25.5,11.2,31.6C827.4,164.6,911.2,272,940.4,400
	C943,411.4,953.1,419.5,964.8,419.5z" fill="#222222"/>
<path d="M299.6,72.4L299.6,72.4c-5.6-13.9-22-19.8-35.1-12.7c-42.7,23-81.7,52.1-116.5,86.8c-45.9,45.9-82,99.4-107.1,158.9
	c-11.5,27.1-20.5,55-26.9,83.5c-3.6,15.7,8.3,30.7,24.4,30.7h0c11.7,0,21.8-8.1,24.4-19.5c29.2-128,113-235.4,225.6-296.2
	C299.6,97.7,304.4,84.2,299.6,72.4z" fill="#222222"/>
<path d="M850,699.6l-46.9-46.9c-2-2-3.1-4.7-3.1-7.6V499.5c0-80.1-31.2-155.5-87.9-212.1c-30.7-30.7-66.9-53.9-106.3-68.8
	c-3.6-1.4-6.2-4.6-6.8-8.4c-6.9-45.6-46.4-80.7-93.9-80.7c-46.3,0-85,33.3-93.3,77.3c-0.7,3.8-3.4,6.9-7.1,8.2
	c-43.5,14.5-83.4,39.1-116.8,72.5C231.2,344,200,419.4,200,499.5v145.6c0,2.8-1.1,5.6-3.1,7.6L150,699.6l-46.9,46.9
	c-2,2-3.1,4.7-3.1,7.6v66.3v68.5c0,5.9,4.8,10.7,10.7,10.7h17.6H150h50h170.7c4.8,0,9,3.3,10.3,7.9c14.5,53,63.1,92.1,120.6,92.1
	c57.5,0,106.1-39.1,120.6-92.1c1.3-4.7,5.4-7.9,10.3-7.9H800h50h6.3h32.9c5.9,0,10.7-4.8,10.7-10.7v-68.5V754c0-2.8-1.1-5.6-3.1-7.6
	L850,699.6z M501.6,949.5c-25.9,0-48.8-13.2-62.2-33.2c-4.8-7.2,0.2-16.8,8.9-16.8H555c8.6,0,13.7,9.6,8.9,16.8
	C550.3,936.3,527.5,949.5,501.6,949.5z M850,838.8c0,5.9-4.8,10.7-10.7,10.7H800h-50H250h-50h-39.3c-5.9,0-10.7-4.8-10.7-10.7v-64
	c0-2.8,1.1-5.6,3.1-7.6l46.9-46.9l46.9-46.9c2-2,3.1-4.7,3.1-7.6v-66.3V499.5c0-109.3,70.5-202.4,168.3-236.3
	c10.9-3.8,22.1-6.8,33.6-9c5-1,8.7-5.3,8.7-10.4v-11.9c0-0.5,0-0.9-0.1-1.4c-0.3-1.9-0.4-3.9-0.4-6c0-8.5,2.3-16.4,6.4-23.1
	c7.9-13.1,22.2-21.9,38.6-21.9c16.9,0,31.7,9.4,39.4,23.3c3.6,6.5,5.6,13.9,5.6,21.8c0,2-0.1,4-0.4,6c-0.1,0.5-0.1,0.9-0.1,1.4v14
	c0,5,3.5,9.3,8.3,10.5c11.1,2.6,21.9,6,32.4,10.1C683.7,302.7,750,393.5,750,499.5v100.1v66.3c0,2.8,1.1,5.6,3.1,7.6l46.9,46.9
	l46.9,46.9c2,2,3.1,4.7,3.1,7.6V838.8z" fill="#222222"/>
</svg>
