<?xml version="1.0" encoding="utf-8"?>
<!-- Generator: Adobe Illustrator 22.1.0, SVG Export Plug-In . SVG Version: 6.00 Build 0)  -->
<svg version="1.1" id="AllAssets" xmlns="http://www.w3.org/2000/svg" xmlns:xlink="http://www.w3.org/1999/xlink" x="0px" y="0px"
	 viewBox="0 0 500 500" style="enable-background:new 0 0 500 500;" xml:space="preserve">
<style type="text/css">
	.st0{fill:#FFFFFF;}
</style>
<path class="st0" d="M275,175h-75h-25h-50h-25H75c-27.6,0-50,22.4-50,50v200c0,27.6,22.4,50,50,50h200c27.6,0,50-22.4,50-50v-25v-25
	v-50v-25v-75C325,197.4,302.6,175,275,175z M300,300v25v50v25v25c0,13.8-11.2,25-25,25H75c-13.8,0-25-11.2-25-25V225
	c0-13.8,11.2-25,25-25h25h25h50h25h75c13.8,0,25,11.2,25,25V300z"/>
<path class="st0" d="M350,100h-36H200h-25h-25c-21.7,0-40.2,13.9-47.1,33.2c-2.9,8.2,3,16.8,11.7,16.8h0c5.4,0,10-3.5,11.8-8.5
	c3.5-9.6,12.7-16.5,23.5-16.5h25h25h150c13.8,0,25,11.2,25,25v150v25v25c0,10.8-6.9,20-16.5,23.5c-5,1.8-8.5,6.5-8.5,11.8
	c0,8.7,8.6,14.7,16.8,11.7c19.3-6.9,33.2-25.4,33.2-47.1v-25v-25V150C400,122.4,377.6,100,350,100z"/>
<path class="st0" d="M425,25H225c-21.7,0-40.2,13.9-47.1,33.2C175,66.4,181,75,189.6,75h0c5.4,0,10-3.5,11.8-8.5
	C205,56.9,214.2,50,225,50h200c13.8,0,25,11.2,25,25v200c0,10.8-6.9,20-16.5,23.5c-5,1.8-8.5,6.5-8.5,11.8c0,8.7,8.6,14.7,16.8,11.7
	c19.3-6.9,33.2-25.4,33.2-47.1V75C475,47.4,452.6,25,425,25z"/>
</svg>
