<?xml version="1.0" encoding="utf-8"?>
<!-- Generator: Adobe Illustrator 22.1.0, SVG Export Plug-In . SVG Version: 6.00 Build 0)  -->
<svg version="1.1" id="Dashborad" xmlns="http://www.w3.org/2000/svg" xmlns:xlink="http://www.w3.org/1999/xlink" x="0px" y="0px"
	 viewBox="0 0 500 500" style="enable-background:new 0 0 500 500;" xml:space="preserve">
<style type="text/css">
	.st0{fill:#FFFFFF;}
</style>
<path class="st0" d="M273.7,51.4c18.7,2.2,36.8,7,54.2,14.3c23.8,10.1,45.2,24.5,63.6,42.9c18.4,18.4,32.8,39.8,42.9,63.6
	c7.3,17.4,12.1,35.5,14.3,54.2c0.7,6.3,6,11.2,12.4,11.2h0c7.4,0,13.3-6.5,12.4-13.9c-12-103.2-93.9-185.1-197.1-197.1
	c-7.4-0.9-13.9,5-13.9,12.4v0C262.5,45.3,267.3,50.6,273.7,51.4z"/>
<path class="st0" d="M461,262.5L461,262.5c-6.4,0-11.7,4.8-12.4,11.1c-2.2,18.7-7,36.8-14.3,54.2c-7,16.6-16.2,32-27.3,46
	c-3.9,4.9-3.4,12,1,16.5h0c5.3,5.3,14,4.8,18.6-1c25.1-31.8,41.8-70.6,46.8-112.9C474.3,269,468.5,262.5,461,262.5z"/>
<path class="st0" d="M373.9,407c-14,11.1-29.4,20.2-46,27.3c-20.8,8.8-42.7,13.9-65.3,15.3c-4.1,0.3-8.3,0.4-12.5,0.4
	s-8.4-0.1-12.5-0.4c-22.6-1.4-44.5-6.5-65.3-15.3c-23.8-10.1-45.2-24.5-63.6-42.9c-18.4-18.4-32.8-39.8-42.9-63.6
	C55.3,303.2,50,277,50,250s5.3-53.2,15.7-77.8c10.1-23.8,24.5-45.2,42.9-63.6c18.4-18.4,39.8-32.8,63.6-42.9
	c17.4-7.4,35.5-12.1,54.2-14.3c6.3-0.7,11.1-6,11.1-12.4v0c0-7.4-6.5-13.3-13.9-12.4C111.8,39.6,25,134.7,25,250
	c0,120.1,94.1,218.2,212.5,224.6c4.1,0.2,8.3,0.4,12.5,0.4s8.4-0.1,12.5-0.4c47.8-2.6,91.6-20.1,126.8-48c5.8-4.6,6.3-13.3,1-18.6
	C385.9,403.6,378.8,403.1,373.9,407z"/>
<path class="st0" d="M225,175v150c0,13.8,11.2,25,25,25s25-11.2,25-25V175c0-13.8-11.2-25-25-25S225,161.2,225,175z"/>
<path class="st0" d="M150,275c-13.8,0-25,11.2-25,25v25c0,13.8,11.2,25,25,25s25-11.2,25-25v-25C175,286.2,163.8,275,150,275z"/>
<path class="st0" d="M325,275v50c0,13.8,11.2,25,25,25s25-11.2,25-25v-50c0-13.8-11.2-25-25-25S325,261.2,325,275z"/>
</svg>
